<svg viewBox="0 0 1200 1200" xmlns:xlink="http://www.w3.org/1999/xlink" xmlns="http://www.w3.org/2000/svg" id="图层_1"><defs><style>.cls-1{fill:url(#未命名的渐变_429);}.cls-2{fill:#ff9801;}.cls-10,.cls-11,.cls-12,.cls-13,.cls-15,.cls-17,.cls-18,.cls-2,.cls-3,.cls-4,.cls-5,.cls-6,.cls-7,.cls-8,.cls-9{stroke:#000;stroke-linecap:round;stroke-linejoin:round;stroke-width:12px;}.cls-3{fill:#fff;}.cls-4{fill:#ff6903;}.cls-5{fill:url(#未命名的渐变_693);}.cls-6{fill:url(#未命名的渐变_819);}.cls-7{fill:url(#未命名的渐变_693-2);}.cls-8{fill:url(#未命名的渐变_819-2);}.cls-9{fill:url(#未命名的渐变_76);}.cls-10{fill:url(#未命名的渐变_7);}.cls-11{fill:#c9d85d;}.cls-12{fill:url(#未命名的渐变_76-2);}.cls-13,.cls-14,.cls-16{fill:none;}.cls-15{fill:#3e8dff;}.cls-16{stroke:#c9d85d;stroke-miterlimit:10;stroke-width:18px;}.cls-17{fill:#ed91e0;}.cls-18{fill:#c039d8;}</style><linearGradient gradientUnits="userSpaceOnUse" y2="0.34" x2="600" y1="1199.66" x1="600" id="未命名的渐变_429"><stop stop-color="#fff" offset="0"></stop><stop stop-color="#aaffe8" offset="1"></stop></linearGradient><linearGradient gradientUnits="userSpaceOnUse" y2="140.94" x2="422.96" y1="522.2" x1="422.96" id="未命名的渐变_693"><stop stop-color="#fff" offset="0"></stop><stop stop-color="#a55fff" offset="1"></stop></linearGradient><linearGradient gradientUnits="userSpaceOnUse" y2="250.66" x2="403.07" y1="351.93" x1="403.07" id="未命名的渐变_819"><stop stop-opacity="0" stop-color="#fff" offset="0"></stop><stop stop-opacity="0.03" stop-color="#fdfbff" offset="0.01"></stop><stop stop-opacity="0.25" stop-color="#e8d7ff" offset="0.13"></stop><stop stop-opacity="0.45" stop-color="#d6b7ff" offset="0.25"></stop><stop stop-opacity="0.62" stop-color="#c79cff" offset="0.37"></stop><stop stop-opacity="0.76" stop-color="#bb86ff" offset="0.49"></stop><stop stop-opacity="0.86" stop-color="#b175ff" offset="0.62"></stop><stop stop-opacity="0.94" stop-color="#aa69ff" offset="0.74"></stop><stop stop-opacity="0.99" stop-color="#a661ff" offset="0.87"></stop><stop stop-color="#a55fff" offset="1"></stop></linearGradient><linearGradient xlink:href="#未命名的渐变_693" y2="210.9" x2="713.14" y1="536.34" x1="713.14" id="未命名的渐变_693-2"></linearGradient><linearGradient xlink:href="#未命名的渐变_819" y2="320.63" x2="734.72" y1="421.9" x1="734.72" id="未命名的渐变_819-2"></linearGradient><linearGradient gradientUnits="userSpaceOnUse" y2="188.99" x2="659.23" y1="104.81" x1="659.23" id="未命名的渐变_76"><stop stop-color="#1572ff" offset="0"></stop><stop stop-color="#00a5e9" offset="0.99"></stop></linearGradient><linearGradient gradientUnits="userSpaceOnUse" y2="218" x2="539.34" y1="146.9" x1="539.34" id="未命名的渐变_7"><stop stop-color="#fff" offset="0"></stop><stop stop-color="lime" offset="1"></stop></linearGradient><linearGradient xlink:href="#未命名的渐变_76" y2="242.52" x2="579.38" y1="371.98" x1="579.38" id="未命名的渐变_76-2"></linearGradient></defs><rect height="1199.32" width="1199.32" y="0.34" x="0.34" class="cls-1"></rect><path d="M203.14,1200c35.45-182.54,183.12-324.79,368.6-337.34,203.41-13.75,382,133.26,423.12,337.34" class="cls-2"></path><path d="M630.8,916.43c-15.81,27-50.14,47.49-89.46,46.45-37.79-1-70.05-20.37-85.25-46.45Z" class="cls-3"></path><path d="M354.05,1076.37c-26.9,43.46-41.74,76.25-56,123.63" class="cls-3"></path><path d="M739.37,1065.44a577.14,577.14,0,0,1,73.32,131.16" class="cls-3"></path><rect rx="27.52" height="394.32" width="394.32" y="424.7" x="465.91" class="cls-4"></rect><path d="M318.82,545.85V888.7a14.89,14.89,0,0,0,23.12,12.42l117.3-77.68A14.92,14.92,0,0,0,465.91,811V452.44A14.89,14.89,0,0,0,442.79,440l-104.25,69.1A44,44,0,0,0,318.82,545.85Z" class="cls-4"></path><path d="M361.79,237.59V178.12a15.92,15.92,0,0,0-15.92-15.92h0a15.93,15.93,0,0,0-15.93,15.92V285.5a92.77,92.77,0,0,0,25.23,63.58l50.33,53.47a72.59,72.59,0,0,1,19.74,49.77V522.2H516v-131a85.64,85.64,0,0,0-18.17-52.74l-46.94-60.05a13,13,0,0,1-2.76-8V208.26a13,13,0,0,0-13-13h0a13,13,0,0,0-13,13V183A14.06,14.06,0,0,0,408,169h0A14.07,14.07,0,0,0,393.94,183V157a16.07,16.07,0,0,0-16.07-16.08h0A16.08,16.08,0,0,0,361.79,157Z" class="cls-5"></path><path d="M367.77,310.32V266.74a16.08,16.08,0,0,1,16.08-16.08h0a16.07,16.07,0,0,1,16.07,16.08v21.84a48.53,48.53,0,0,0,11.42,31.26l27,32.09" class="cls-6"></path><path d="M774.31,307.55V248.09a15.93,15.93,0,0,1,15.92-15.93h0a15.92,15.92,0,0,1,15.92,15.93V355.46a92.77,92.77,0,0,1-25.22,63.59L730.6,472.51a72.61,72.61,0,0,0-19.74,49.77v14.06H620.12v-75.2a85.66,85.66,0,0,1,18.17-52.74l46.94-60a13,13,0,0,0,2.76-8v-62.1a13,13,0,0,1,13-13h0a13,13,0,0,1,13,13V260.42a14.06,14.06,0,0,1,14.05-14.06h0a14.06,14.06,0,0,1,14,14.06V227a16.08,16.08,0,0,1,16.08-16.08h0A16.08,16.08,0,0,1,774.31,227Z" class="cls-7"></path><path d="M770,380.28V336.7a16.08,16.08,0,0,0-16.08-16.07h0a16.08,16.08,0,0,0-16.07,16.07v21.84a48.48,48.48,0,0,1-11.42,31.27l-27,32.09" class="cls-8"></path><circle r="42.09" cy="146.9" cx="659.23" class="cls-9"></circle><circle r="35.55" cy="182.45" cx="539.34" class="cls-10"></circle><path d="M615,250.21c32.42-6.51,57.93-2.73,64.63,11.91,10,21.92-26,59.91-80.41,84.83s-106.72,27.36-116.76,5.43c-6.61-14.45,6.75-35.86,32.21-55.92" class="cls-11"></path><circle r="64.73" cy="307.25" cx="579.38" class="cls-12"></circle><path d="M518.43,329.11a42.49,42.49,0,0,0,4-1.7c21.52-10.56,12.92-28.08,34.43-38.64s30.12,6.94,51.64-3.63c12.06-5.92,14.66-14,18.41-21.86" class="cls-13"></path><circle r="64.73" cy="307.25" cx="579.38" class="cls-14"></circle><path d="M516,420.34c21.57,5.67,35.8,15.41,35.8,26.47,0,17.51-35.69,31.71-79.71,31.71s-79.71-14.2-79.71-31.71c0-9.05,9.53-17.21,24.8-23" class="cls-13"></path><rect transform="translate(-199.96 474.31) rotate(-45)" height="35.36" width="35.36" y="460.84" x="454.88" class="cls-15"></rect><path d="M645.73,319.31A242.53,242.53,0,0,1,599.17,347c-21,9.63-41.75,15.9-59.83,18.71" class="cls-11"></path><path d="M666.11,269.88c1,2.16-.91,10.77-13.09,23.62-13.61,14.36-35.27,28.94-59.43,40-26.32,12.05-53.13,19-73.56,19-14.14,0-21-3.46-22-5.64" class="cls-16"></path><path d="M713.14,530.19V888.7a14.89,14.89,0,0,0,23.12,12.42l117.29-77.68A14.9,14.9,0,0,0,860.22,811V452.44A14.89,14.89,0,0,0,837.1,440L719.8,517.78A14.89,14.89,0,0,0,713.14,530.19Z" class="cls-2"></path><line y2="823.44" x2="853.55" y1="530.19" x1="713.14" class="cls-13"></line><rect rx="27.52" height="394.24" width="394.32" y="522.2" x="318.82" class="cls-17"></rect><polyline points="452.39 732.14 557.18 732.14 629.52 732.14" class="cls-13"></polyline><circle r="34.65" cy="732.15" cx="422.66" class="cls-18"></circle><circle r="34.65" cy="733.05" cx="597.91" class="cls-2"></circle><path d="M401,617.71c21,0,21,24,42,24s21-24,42-24,21,24,42,24,21-24,42-24,21,24,42,24" class="cls-13"></path><rect height="33.01" width="69.24" y="828.76" x="446.74" class="cls-3"></rect><polyline points="543.29 845.27 543.29 890.16 506.04 890.16" class="cls-13"></polyline><ellipse transform="translate(-633.44 681.87) rotate(-45)" ry="47.58" rx="64.85" cy="1105.56" cx="506.38" class="cls-13"></ellipse><path d="M640.67,286.2a269.41,269.41,0,0,1-51,32.16c-23.11,11.35-46,19-66,22.62" class="cls-13"></path></svg>